<?xml version="1.0" encoding="iso-8859-1"?>
<!-- Generator: Adobe Illustrator 19.0.0, SVG Export Plug-In . SVG Version: 6.00 Build 0)  -->
<svg version="1.1" id="Capa_1" xmlns="http://www.w3.org/2000/svg" xmlns:xlink="http://www.w3.org/1999/xlink" x="0px" y="0px"
	 viewBox="0 0 53 53" style="enable-background:new 0 0 53 53;" xml:space="preserve">
<g>
	<g>
		<path d="M49.5,36h-7.381c2.168-1.44,3.834-3.567,4.705-6.065C47.215,29.799,47.5,29.438,47.5,29v-6
			c0-0.438-0.285-0.799-0.676-0.935C45.19,17.378,40.737,14,35.5,14c-5.238,0-9.69,3.378-11.324,8.065
			C23.785,22.201,23.5,22.562,23.5,23v6c0,0.438,0.285,0.799,0.676,0.935c0.871,2.499,2.537,4.626,4.705,6.065H21.5V12
			c0-0.553-0.447-1-1-1h-1V1c0-0.553-0.447-1-1-1h-8c-0.553,0-1,0.447-1,1v10h-1c-0.553,0-1,0.447-1,1v24h-4c-0.553,0-1,0.447-1,1
			v15c0,0.553,0.447,1,1,1h14c0.553,0,1-0.447,1-1v-5h16v5c0,0.553,0.447,1,1,1h14c0.553,0,1-0.447,1-1V37
			C50.5,36.447,50.053,36,49.5,36z M25.5,26c0-0.685,0.07-1.354,0.202-2h19.597c0.132,0.646,0.202,1.315,0.202,2
			s-0.07,1.354-0.202,2H25.702C25.57,27.354,25.5,26.685,25.5,26z M35.5,16c4.091,0,7.612,2.473,9.159,6H26.341
			C27.888,18.473,31.409,16,35.5,16z M26.341,30h18.318c-1.547,3.527-5.068,6-9.159,6S27.888,33.527,26.341,30z M11.5,2h6v9h-6V2z
			 M9.5,13h1h8h1v23h-10V13z M48.5,51h-12v-5c0-0.553-0.447-1-1-1h-18c-0.553,0-1,0.447-1,1v5h-12V38h4h12h28V51z"/>
		<rect x="7.5" y="46" width="6" height="2"/>
		<rect x="7.5" y="41" width="6" height="2"/>
		<rect x="17.5" y="41" width="18" height="2"/>
		<rect x="39.5" y="46" width="6" height="2"/>
		<rect x="39.5" y="41" width="6" height="2"/>
	</g>
</g>
<g>
</g>
<g>
</g>
<g>
</g>
<g>
</g>
<g>
</g>
<g>
</g>
<g>
</g>
<g>
</g>
<g>
</g>
<g>
</g>
<g>
</g>
<g>
</g>
<g>
</g>
<g>
</g>
<g>
</g>
</svg>
